<svg width="15" height="15" viewBox="0 0 15 15" fill="none" xmlns="http://www.w3.org/2000/svg">
<path d="M6.98625 12.2306C7.04359 12.3139 7.12031 12.382 7.20981 12.429C7.2993 12.4761 7.39889 12.5006 7.5 12.5006C7.60111 12.5006 7.7007 12.4761 7.79019 12.429C7.87969 12.382 7.95641 12.3139 8.01375 12.2306L13.6388 4.10563C13.7039 4.01191 13.742 3.90215 13.7491 3.78825C13.7563 3.67436 13.732 3.5607 13.6791 3.45962C13.6261 3.35854 13.5465 3.27391 13.4488 3.21491C13.3511 3.15592 13.2391 3.12482 13.125 3.125H1.875C1.76115 3.12547 1.64959 3.15697 1.5523 3.2161C1.45501 3.27524 1.37569 3.35977 1.32286 3.46062C1.27002 3.56147 1.24568 3.67481 1.25244 3.78846C1.25921 3.90211 1.29683 4.01176 1.36125 4.10563L6.98625 12.2306Z" fill="#E0E0E0"/>
</svg>
