<svg width="24" height="24" viewBox="0 0 24 24" fill="none" xmlns="http://www.w3.org/2000/svg">
<path d="M19.5 0C21.9853 0 24 2.01472 24 4.5V19.5C24 21.9853 21.9853 24 19.5 24H4.5C2.01472 24 0 21.9853 0 19.5V4.5C0 2.01472 2.01472 0 4.5 0H19.5ZM16.8086 12.2207C15.3933 12.2208 14.2246 12.6889 13.3027 13.626C12.4094 14.5409 11.9629 15.7101 11.9629 17.1318C11.963 18.6384 12.4339 19.8489 13.376 20.7637C14.2612 21.6292 15.4098 22.0625 16.8213 22.0625C17.5882 22.0625 18.3408 21.9343 19.0791 21.6787L18.9014 20.6426C18.2038 20.8937 17.543 21.0195 16.9189 21.0195C15.8257 21.0195 14.9237 20.7036 14.2139 20.0713C13.4063 19.3537 13.0029 18.3825 13.0029 17.1582C13.0029 16.5124 13.1236 15.9247 13.3643 15.3955C13.6661 14.7454 14.1164 14.2297 14.7158 13.8486C15.3521 13.445 16.058 13.2432 16.833 13.2432C17.8365 13.2432 18.6773 13.5365 19.3545 14.124C19.9664 14.6577 20.2724 15.4023 20.2725 16.3574C20.2725 17.0526 20.1149 17.6543 19.8008 18.1611C19.5438 18.5779 19.252 18.7861 18.9258 18.7861C18.6772 18.786 18.5528 18.6315 18.5527 18.3223C18.5527 18.1967 18.5735 17.9971 18.6143 17.7236L19.0244 14.9248C18.4655 14.705 17.8633 14.5947 17.2188 14.5947C16.3662 14.5948 15.6685 14.8798 15.126 15.4492C14.8405 15.7497 14.6172 16.1053 14.4561 16.5156C14.2949 16.926 14.2139 17.3444 14.2139 17.7705C14.2139 18.4118 14.3922 18.9164 14.7471 19.2842C15.0734 19.6248 15.5156 19.7949 16.0742 19.7949C16.7677 19.7949 17.3186 19.479 17.7266 18.8467C17.7918 19.479 18.1555 19.7949 18.8164 19.7949C19.4363 19.7948 19.9929 19.5169 20.4863 18.9609C21.0369 18.3376 21.3124 17.5038 21.3125 16.459C21.3125 15.7999 21.1944 15.1965 20.958 14.6494C20.7255 14.1202 20.4005 13.6738 19.9844 13.3105C19.1481 12.584 18.0895 12.2207 16.8086 12.2207ZM17.2373 15.5303C17.3678 15.5303 17.5372 15.5612 17.7451 15.624L17.4883 17.2998C17.4149 17.7882 17.3148 18.1176 17.1885 18.2881C16.9478 18.62 16.6435 18.7861 16.2764 18.7861C16.0235 18.7861 15.8236 18.6953 15.6768 18.5137C15.53 18.3321 15.4561 18.0844 15.4561 17.7705C15.4561 17.2099 15.6235 16.7029 15.958 16.25C16.1212 16.0258 16.3175 15.8495 16.5459 15.7217C16.7743 15.594 17.0049 15.5303 17.2373 15.5303ZM4.3125 17.5889H11.1289C11.1182 17.4401 11.1123 17.2908 11.1123 17.1416C11.1123 13.9296 13.5863 11.3252 16.6377 11.3252C17.733 11.3252 18.7536 11.6615 19.6123 12.2402V6.24414L11.9629 13.1777L4.3125 6.24316V17.5889ZM11.9629 10.8164L18.3115 5.0625H5.61523L11.9629 10.8164Z" fill="#EDEDEB"/>
</svg>
