<svg width="24" height="24" viewBox="0 0 24 24" fill="none" xmlns="http://www.w3.org/2000/svg">
<path d="M19.5 0C21.9853 0 24 2.01472 24 4.5V19.5C24 21.9853 21.9853 24 19.5 24H4.5C2.01472 24 0 21.9853 0 19.5V4.5C0 2.01472 2.01472 0 4.5 0H19.5ZM12 4C10.9494 4 9.90908 4.212 8.93848 4.62402C7.96788 5.03604 7.08564 5.64006 6.34277 6.40137C4.8427 7.9388 4.0001 10.0241 4 12.1982C4 15.8219 6.29583 18.8968 9.47168 19.9873C9.87168 20.0529 10 19.7985 10 19.5771V18.1914C7.784 18.6833 7.31152 17.0928 7.31152 17.0928C6.94354 16.1422 6.42383 15.8877 6.42383 15.8877C5.69627 15.3796 6.48047 15.3965 6.48047 15.3965C7.27298 15.4536 7.69657 16.2264 7.7041 16.2402C8.4001 17.4864 9.57623 17.1177 10.0322 16.9209C10.1042 16.3881 10.3122 16.0272 10.5361 15.8223C8.7602 15.6173 6.89663 14.9124 6.89648 11.7891C6.89648 10.879 7.19973 10.1485 7.71973 9.56641C7.63947 9.36058 7.36015 8.50828 7.7998 7.40234C7.7998 7.40234 8.47213 7.18081 10 8.23828C10.632 8.05793 11.32 7.96777 12 7.96777C12.68 7.96777 13.368 8.05793 14 8.23828C15.5279 7.18081 16.2002 7.40234 16.2002 7.40234C16.6398 8.50828 16.3605 9.36058 16.2803 9.56641C16.8003 10.1485 17.1035 10.879 17.1035 11.7891C17.1034 14.9205 15.2321 15.6095 13.4482 15.8145C13.7361 16.0687 14 16.5688 14 17.3311V19.5771C14 19.7985 14.1281 20.0611 14.5361 19.9873C17.7121 18.8887 20 15.822 20 12.1982C20 11.1218 19.7926 10.0561 19.3906 9.06152C18.9886 8.06691 18.4 7.16264 17.6572 6.40137C16.9144 5.64006 16.0321 5.03604 15.0615 4.62402C14.0909 4.212 13.0506 4 12 4Z" fill="#EDEDEB"/>
</svg>
