<svg width="24" height="24" viewBox="0 0 24 24" fill="none" xmlns="http://www.w3.org/2000/svg">
<path d="M19.5 0C21.9853 0 24 2.01472 24 4.5V19.5C24 21.9853 21.9853 24 19.5 24H4.5C2.01472 24 0 21.9853 0 19.5V4.5C0 2.01472 2.01472 0 4.5 0H19.5ZM16.0664 11.3604C15.6155 11.3604 15.1686 11.4462 14.752 11.6123C14.3356 11.7783 13.9574 12.0215 13.6387 12.3281C13.3198 12.635 13.0661 12.9995 12.8936 13.4004C12.7211 13.8012 12.6328 14.2312 12.6328 14.665C12.633 16.0568 13.4566 17.2205 14.1758 17.9814C14.5851 18.4112 15.037 18.8023 15.5244 19.1484C15.6537 19.2388 15.7871 19.3231 15.9199 19.4072L16.0664 19.5L16.2129 19.4072C16.3458 19.3224 16.4791 19.2388 16.6084 19.1484C17.0958 18.8023 17.5478 18.4112 17.957 17.9814C18.6762 17.2205 19.4998 16.0567 19.5 14.665C19.5 14.2311 19.4108 13.8013 19.2383 13.4004C19.0657 12.9995 18.813 12.635 18.4941 12.3281C18.1753 12.0213 17.7964 11.7783 17.3799 11.6123C16.9634 11.4463 16.5172 11.3604 16.0664 11.3604ZM4.5 7.13477V17.9688L8.47559 16.3916V4.90234L4.5 7.13477ZM9.92188 16.167L11.1865 16.8857V14.665C11.1864 13.8578 11.4029 13.0638 11.8145 12.3604C12.226 11.6569 12.8188 11.067 13.5361 10.6484V6.55469L9.92188 4.5V16.167ZM16.9697 14.1426V15.5342H15.1631V14.1426H16.9697ZM14.9814 6.3291V10.085C15.6647 9.93613 16.3737 9.93097 17.0596 10.0684C17.7455 10.2058 18.3932 10.4829 18.958 10.8818V4.75195L14.9814 6.3291Z" fill="#EDEDEB"/>
</svg>
