<svg width="24" height="24" viewBox="0 0 24 24" fill="none" xmlns="http://www.w3.org/2000/svg">
<path d="M19.5 0C21.9853 0 24 2.01472 24 4.5V19.5C24 21.9853 21.9853 24 19.5 24H4.5C2.01472 24 0 21.9853 0 19.5V4.5C0 2.01472 2.01472 0 4.5 0H19.5ZM7.19531 4C6.30645 4 5.59375 4.7127 5.59375 5.60156V18.4141C5.59375 18.8388 5.76215 19.2465 6.0625 19.5469C6.36285 19.8472 6.77055 20.0156 7.19531 20.0156H16.8047C17.2294 20.0156 17.6371 19.8472 17.9375 19.5469C18.2379 19.2465 18.4062 18.8388 18.4062 18.4141V8.80469L13.6016 4H7.19531ZM10.3984 16.0117C11.4635 16.0117 13.6016 16.5482 13.6016 17.6133V18.4141H7.19531V17.6133C7.19531 16.5482 9.3334 16.0117 10.3984 16.0117ZM10.3984 12.0078C10.8232 12.0078 11.2309 12.1762 11.5312 12.4766C11.8316 12.7769 12 13.1846 12 13.6094C12 14.0341 11.8316 14.4418 11.5312 14.7422C11.2309 15.0425 10.8232 15.2109 10.3984 15.2109C9.97368 15.2109 9.56598 15.0425 9.26562 14.7422C8.96527 14.4418 8.79688 14.0341 8.79688 13.6094C8.79688 13.1846 8.96527 12.7769 9.26562 12.4766C9.56598 12.1762 9.97368 12.0078 10.3984 12.0078ZM17.2051 9.60547H12.8008V5.20117L17.2051 9.60547Z" fill="#EDEDEB"/>
</svg>
