<svg width="500" height="282" viewBox="0 0 500 282" fill="none" xmlns="http://www.w3.org/2000/svg">
<path d="M211.435 43.5086C142.75 87.5896 114.474 130.218 108.921 146.022C108.921 180.365 143.092 241.915 160.178 268.398H226.812C197.553 234.654 156.59 151.532 226.812 88.999C297.034 26.4656 370.117 19.8023 397.882 24.2873C364.351 12.3274 280.119 -0.572263 211.435 43.5086Z" fill="white"/>
<path d="M0 255.644L49.9754 25.6284H126.861L78.1667 255.644H0Z" fill="white"/>
<path d="M500 0L440.414 281.272H366.731L374.42 252.44C351.141 264.187 306.901 281.272 281.272 276.146C249.237 269.739 194.14 239.626 203.751 165.304C213.362 90.9813 296.645 32.6758 413.259 32.6758L423.755 0H500ZM411.414 84.8779C389.843 83.1694 339.783 87.8258 312.104 120.117C277.506 160.482 290.894 208.281 312.104 211.739C369.768 221.141 392.834 177.141 392.834 177.141L411.414 84.8779Z" fill="white"/>
</svg>
