<svg width="45" height="45" viewBox="0 0 45 45" fill="none" xmlns="http://www.w3.org/2000/svg">
<path d="M5.26817 9.74232C5.18485 7.34643 7.0513 5.13721 9.57446 5.13721H35.4284C37.9515 5.13721 39.818 7.34643 39.7347 9.74232C39.6545 12.0437 39.7586 15.0249 40.5088 17.4556C41.2615 19.894 42.5306 21.4349 44.6094 21.6332V23.8787C42.5306 24.0769 41.2615 25.6178 40.5088 28.0563C39.7586 30.487 39.6545 33.4682 39.7347 35.7696C39.818 38.1655 37.9515 40.3743 35.4284 40.3743H9.57446C7.0513 40.3743 5.18485 38.1651 5.26817 35.7696C5.34833 33.4682 5.24427 30.487 4.49368 28.0563C3.74134 25.6182 2.46868 24.0769 0.389893 23.8787V21.6332C2.46868 21.4353 3.74134 19.894 4.49368 17.4556C5.24427 15.0249 5.34798 12.0437 5.26817 9.74232Z" fill="url(#paint0_linear_64_5)"/>
<g filter="url(#filter0_d_64_5)">
<path d="M23.5933 32.2509C27.6781 32.2509 30.1396 30.2509 30.1396 26.952C30.1396 24.4584 28.3833 22.6531 25.7754 22.3673V22.2634C27.6914 21.9518 29.1949 20.1725 29.1949 18.1854C29.1949 15.3541 26.9597 13.5098 23.5534 13.5098H15.8894V32.2509H23.5933ZM18.8699 15.8865H22.835C24.9904 15.8865 26.2145 16.8476 26.2145 18.5879C26.2145 20.4452 24.7909 21.4842 22.2096 21.4842H18.8699V15.8865ZM18.8699 29.8742V23.705H22.8083C25.629 23.705 27.0927 24.744 27.0927 26.7701C27.0927 28.7962 25.669 29.8742 22.9813 29.8742H18.8699Z" fill="url(#paint1_linear_64_5)"/>
</g>
<defs>
<filter id="filter0_d_64_5" x="15.3981" y="13.1413" width="15.2329" height="19.7239" filterUnits="userSpaceOnUse" color-interpolation-filters="sRGB">
<feFlood flood-opacity="0" result="BackgroundImageFix"/>
<feColorMatrix in="SourceAlpha" type="matrix" values="0 0 0 0 0 0 0 0 0 0 0 0 0 0 0 0 0 0 127 0" result="hardAlpha"/>
<feOffset dy="0.12283"/>
<feGaussianBlur stdDeviation="0.24566"/>
<feColorMatrix type="matrix" values="0 0 0 0 0 0 0 0 0 0 0 0 0 0 0 0 0 0 0.15 0"/>
<feBlend mode="normal" in2="BackgroundImageFix" result="effect1_dropShadow_64_5"/>
<feBlend mode="normal" in="SourceGraphic" in2="effect1_dropShadow_64_5" result="shape"/>
</filter>
<linearGradient id="paint0_linear_64_5" x1="6.9608" y1="6.06977" x2="45.6005" y2="36.7424" gradientUnits="userSpaceOnUse">
<stop stop-color="#9013FE"/>
<stop offset="1" stop-color="#6610F2"/>
</linearGradient>
<linearGradient id="paint1_linear_64_5" x1="17.2377" y1="14.7431" x2="25.8742" y2="29.3499" gradientUnits="userSpaceOnUse">
<stop stop-color="white"/>
<stop offset="1" stop-color="#F1E5FC"/>
</linearGradient>
</defs>
</svg>
