<svg width="30" height="42" viewBox="0 0 30 42" fill="none" xmlns="http://www.w3.org/2000/svg">
<rect x="4.73438" y="12.276" width="20.2033" height="24.0567" fill="white"/>
<path d="M7.00293 0H11.5149V1.88677H8.8897V3.77353H11.5149V5.66016H7.00293V0Z" fill="#0074BA"/>
<path d="M12.417 0H16.9287V1.64077H14.3036V1.96872H16.9287V5.74239H12.417V4.01968H15.0419V3.69144H12.417V0Z" fill="#0074BA"/>
<path d="M17.8311 0H22.3427V1.64077H19.7178V1.96872H22.3427V5.74239H17.8311V4.01968H20.4561V3.69144H17.8311V0Z" fill="#0074BA"/>
<path d="M0 8.25403L2.70786 38.6266L14.8594 41.9999L27.0446 38.6219L29.7554 8.25403H0ZM23.5237 22.0022L23.4329 23.0025L22.5574 32.8094L22.5014 33.4387L14.8777 35.5517V35.5522L14.8605 35.557L7.22996 33.4387L6.70812 27.5898H8.43155H10.4475L10.7127 30.5607L14.8614 31.6811L14.8648 31.68V31.6798L19.0194 30.5584L19.4518 25.7272H14.8777H14.8648H6.54165L6.2077 22.0022H14.8648H14.8777H19.7749L20.1138 18.1877H14.8777H14.8648H5.8756L5.53694 14.4626H14.8648H14.8777H24.1963L23.5237 22.0022Z" fill="#0074BA"/>
</svg>
