<svg width="17" height="25" viewBox="0 0 17 25" fill="none" xmlns="http://www.w3.org/2000/svg">
<path fill-rule="evenodd" clip-rule="evenodd" d="M0 20.5783C0 18.418 1.75127 16.6667 3.91156 16.6667H8.33333V21.0885C8.33333 23.2488 6.58207 25.0001 4.42177 25.0001H3.91156C1.75127 25.0001 0 23.2488 0 21.0885V20.5783Z" fill="#5ECB89"/>
<path fill-rule="evenodd" clip-rule="evenodd" d="M8.33398 12.2448C8.33398 10.086 10.0868 8.33325 12.2455 8.33325H12.7558C14.9145 8.33325 16.6673 10.086 16.6673 12.2448V12.755C16.6673 14.9138 14.9145 16.6666 12.7558 16.6666H12.2455C10.0868 16.6666 8.33398 14.9138 8.33398 12.755V12.2448Z" fill="#54BAF7"/>
<path fill-rule="evenodd" clip-rule="evenodd" d="M0 12.2448C0 10.0845 1.75127 8.33325 3.91156 8.33325H8.33333V16.6666H3.91156C1.75127 16.6666 0 14.9153 0 12.755V12.2448Z" fill="#9764F5"/>
<path fill-rule="evenodd" clip-rule="evenodd" d="M8.33398 0H12.7558C14.9161 0 16.6673 1.75127 16.6673 3.91156V4.42177C16.6673 6.58207 14.9161 8.33333 12.7558 8.33333H8.33398V0Z" fill="#EF7969"/>
<path fill-rule="evenodd" clip-rule="evenodd" d="M0 3.91156C0 1.75127 1.75127 0 3.91156 0H8.33333V8.33333H3.91156C1.75127 8.33333 0 6.58207 0 4.42177V3.91156Z" fill="#E15832"/>
</svg>
