<svg width="51" height="50" viewBox="0 0 51 50" fill="none" xmlns="http://www.w3.org/2000/svg">
<mask id="mask0_2219_983" style="mask-type:luminance" maskUnits="userSpaceOnUse" x="0" y="0" width="51" height="50">
<path d="M50.2506 0H0V50H50.2506V0Z" fill="white"/>
</mask>
<g mask="url(#mask0_2219_983)">
<mask id="mask1_2219_983" style="mask-type:luminance" maskUnits="userSpaceOnUse" x="0" y="0" width="51" height="51">
<path d="M0 0.0229492V50.0003H50.2221V0.0229492H0Z" fill="white"/>
<path d="M0 0.0229492V50.0003H50.2221V0.0229492H0Z" fill="white"/>
<path d="M0 0.0229492V50.0003H50.2221V0.0229492H0Z" fill="white"/>
<path d="M0 0.0229492V50.0003H50.2221V0.0229492H0Z" fill="white"/>
<path d="M0 0.0229492V50.0003H50.2221V0.0229492H0Z" fill="white"/>
<path d="M0 0.0229492V50.0003H50.2221V0.0229492H0Z" fill="white"/>
<path d="M0 0.0229492V50.0003H50.2221V0.0229492H0Z" fill="white"/>
<path d="M0 0.0229492V50.0003H50.2221V0.0229492H0Z" fill="white"/>
<path d="M0 0.0229492V50.0003H50.2221V0.0229492H0Z" fill="white"/>
</mask>
<g mask="url(#mask1_2219_983)">
<path d="M46.8535 12.7805C44.608 8.85591 41.5622 5.74876 37.7152 3.45841C33.8675 1.16794 29.667 0.0229492 25.1108 0.0229492C20.555 0.0229492 16.3533 1.16831 12.5064 3.45841C8.65902 5.74864 5.61328 8.85591 3.36779 12.7805C1.12268 16.705 0 20.9906 0 25.6372C0 31.2188 1.59637 36.238 4.78997 40.6959C7.98321 45.1542 12.1085 48.2391 17.1653 49.9511C17.7539 50.0625 18.1897 49.9841 18.4731 49.7179C18.7564 49.4513 18.898 49.1174 18.898 48.7177C18.898 48.651 18.8924 48.0509 18.8815 46.9167C18.8703 45.7825 18.865 44.7931 18.865 43.9488L18.5406 43.7685C18.0612 43.8581 17.7693 43.7812 17.0389 43.7706C16.309 43.7602 15.5512 43.6821 14.7666 43.537C13.9818 43.3932 13.2517 43.0597 12.5759 42.5371C11.9005 42.0147 11.421 41.3306 11.1376 40.4862L10.8106 39.7188C10.5927 39.2078 10.2809 38.7342 9.81225 38.112C9.34345 37.4892 8.86939 37.067 8.38994 36.8447L8.16108 36.6776C8.00857 36.5664 7.86701 36.4325 7.73605 36.2769C7.60523 36.1216 7.50736 35.9659 7.44194 35.81C7.37641 35.6541 7.43075 35.5262 7.60544 35.4258C7.78013 35.3254 8.0957 35.2768 8.5536 35.2768L9.20732 35.3764C9.64329 35.4655 10.1825 35.7318 10.8258 36.1768C11.4686 36.6214 11.966 37.1054 12.3801 37.8165C12.8818 38.7284 13.4861 39.4233 14.1948 39.9015C14.903 40.3796 15.617 40.6183 16.3362 40.6183C17.0554 40.6183 17.7079 40.6566 18.2312 40.546C18.754 40.4348 18.4724 40.6015 18.9305 40.3793C19.1266 38.8889 19.6607 37.744 20.5323 36.9436C19.29 36.8104 18.6947 36.7351 17.7026 36.4685C16.7111 36.2014 15.5196 35.8932 14.4626 35.2923C13.405 34.6922 12.1729 33.6965 11.4757 32.8075C10.7783 31.9181 10.2058 30.7504 9.75927 29.3054C9.31253 27.8599 9.08922 26.1925 9.08922 24.3025C9.08922 21.6117 9.95038 19.3218 11.6724 17.4316C10.8658 15.4085 10.942 13.1406 11.9011 10.6281C12.5332 10.4277 13.4707 10.5781 14.713 11.0782C15.9555 11.5786 16.8653 12.0072 17.4431 12.3625C18.0211 12.7178 18.484 13.0188 18.8328 13.2629C20.8604 12.6851 22.9528 12.396 25.1105 12.396C27.2683 12.396 29.3612 12.6851 31.3888 13.2629L32.2107 13.0826C33.0603 12.5487 34.0637 12.0594 35.2182 11.6147C36.3735 11.1702 37.434 11.2912 38.0446 11.4916C40.0208 15.3853 38.6133 16.9676 38.549 17.432C40.2709 19.3221 41.1325 21.6125 41.1325 24.3029C41.1325 26.1927 40.9083 27.8656 40.4622 29.3222C40.0155 30.779 39.4382 31.9455 38.7301 32.8243C38.0211 33.7029 37.1382 34.4422 36.0812 35.0422C35.0239 35.6426 33.999 36.0761 33.0074 36.3431C32.0155 36.6102 30.8986 36.8108 29.6563 36.9443C30.7893 37.9444 31.356 39.5232 31.356 41.68V48.7168C31.356 49.1166 31.4922 49.4503 31.765 49.7169C32.0375 49.9832 32.4677 50.0615 33.0564 49.95C38.1139 48.2382 42.2391 45.1531 45.4322 40.6949C48.6251 36.237 50.2221 31.2179 50.2221 25.6362C50.2208 20.9902 49.0976 16.705 46.8535 12.7805Z" fill="#090508"/>
</g>
</g>
</svg>
