<svg width="30" height="42" viewBox="0 0 30 42" fill="none" xmlns="http://www.w3.org/2000/svg">
<rect x="4.00879" y="10.73" width="20.7258" height="24.679" fill="white"/>
<path d="M2.76855 0H4.6615V1.87054H6.39319V0H8.28628V5.6639H6.39333V3.76715H4.66165V5.6639H2.76855V0Z" fill="#FF4E1D"/>
<path d="M10.7751 1.8784H9.1084V0.000244141H14.3355V1.8784H12.6681V5.66414H10.7751V1.8784Z" fill="#FF4E1D"/>
<path d="M15.166 0H17.14L18.3542 1.9902L19.5671 0H21.5417V5.6639H19.6566V2.85656L18.3542 4.87034H18.3215L17.0182 2.85656V5.6639H15.166V0Z" fill="#FF4E1D"/>
<path d="M22.4824 0H24.3761V3.79175H27.0381V5.6639H22.4824V0Z" fill="#FF4E1D"/>
<path d="M0 8.25421L2.70789 38.6267L14.8594 42L27.0446 38.6221L29.7555 8.25421H0ZM24.1071 15.462L23.9373 17.3506L23.8626 18.1878H23.8506H14.8776H14.8647H9.60798L9.94852 22.0022H14.8647H14.8776H22.5198H23.5237L23.4328 23.0026L22.5573 32.8095L22.5014 33.4389L14.8776 35.5518V35.5524L14.8605 35.5571L7.22993 33.4389L6.70807 27.59H8.43155H10.4475L10.7126 30.5608L14.8613 31.6811L14.8647 31.6802V31.6798L19.0194 30.5584L19.4518 25.7274H14.8776H14.8647H6.54168L5.62611 15.462L5.53691 14.4627H14.8647H14.8776H24.1961L24.1071 15.462Z" fill="#FF4E1D"/>
</svg>
