<svg width="40" height="35" viewBox="0 0 40 35" fill="none" xmlns="http://www.w3.org/2000/svg">
<path fill-rule="evenodd" clip-rule="evenodd" d="M19.7826 13.9539C21.7339 13.9539 23.3156 15.5267 23.3156 17.4667C23.3156 19.4069 21.7339 20.9798 19.7826 20.9798C17.8315 20.9798 16.2496 19.4069 16.2496 17.4667C16.2496 15.5267 17.8315 13.9539 19.7826 13.9539ZM28.7906 1.90129C27.5467 1.18803 24.8167 2.18586 21.8956 4.71347C21.5856 4.98238 21.2822 5.25934 20.9859 5.54325C22.1167 6.75455 23.243 8.15412 24.3304 9.69325C26.1965 9.86738 27.9791 10.1478 29.6204 10.5243C29.6846 10.2648 29.7439 10.0039 29.7985 9.74216C30.6309 5.72455 30.1154 2.66108 28.7906 1.90129ZM25.3039 20.6676C25.9085 19.6265 26.4756 18.5643 27.0041 17.4832C26.4702 16.413 25.9013 15.3604 25.2985 14.3269C24.6991 13.2961 24.0633 12.2867 23.3922 11.3006C22.2159 11.2115 21.0078 11.1648 19.7828 11.1648C18.5633 11.1648 17.3567 11.2111 16.18 11.2996C15.5022 12.2872 14.8624 13.3 14.2617 14.3361C13.6609 15.3717 13.0996 16.4293 12.5787 17.5072C13.1009 18.5845 13.6639 19.6417 14.2667 20.6767C14.8724 21.7172 15.5174 22.7345 16.2004 23.7265C17.3537 23.8008 18.5515 23.8389 19.7826 23.8389C21.0189 23.8389 22.2319 23.7958 23.4059 23.7126C24.0715 22.7182 24.7046 21.7028 25.3039 20.6676ZM27.9156 19.4228C27.5487 20.1259 27.1661 20.8209 26.768 21.5072C26.3765 22.1822 25.9715 22.8495 25.5535 23.5089C26.8585 23.3532 28.0969 23.1435 29.2441 22.8832C28.8902 21.7806 28.4443 20.6213 27.9156 19.4228ZM19.8483 28.3074C20.6226 27.4595 21.4006 26.5076 22.1711 25.4665C21.3863 25.5013 20.5891 25.5193 19.7826 25.5193C18.9976 25.5193 18.2254 25.5043 17.4678 25.4748C18.2483 26.4972 19.0472 27.4478 19.8483 28.3074ZM14.0461 23.5389C13.6159 22.8754 13.2017 22.2017 12.8039 21.5187C12.4141 20.8491 12.04 20.1704 11.6822 19.4832C11.1796 20.6687 10.7491 21.8345 10.3998 22.9561C11.5283 23.2004 12.7504 23.3952 14.0461 23.5389ZM12.7972 13.4965C13.1859 12.8265 13.5902 12.1656 14.01 11.5146C12.7559 11.6704 11.552 11.8756 10.423 12.1269C10.767 13.2289 11.1883 14.3702 11.6804 15.5309C12.0365 14.8441 12.4091 14.1659 12.7972 13.4965ZM19.8015 6.74499C19.0098 7.59433 18.2224 8.53064 17.4537 9.53846C19.0115 9.46607 20.5719 9.46629 22.1298 9.53955C21.3619 8.52238 20.5811 7.58455 19.8015 6.74499ZM26.7613 13.485C27.1543 14.1598 27.5337 14.8422 27.8993 15.5319C28.3998 14.3674 28.8248 13.2311 29.1659 12.1446C28.03 11.8867 26.8206 11.6761 25.5583 11.5176C25.9732 12.1648 26.3746 12.8206 26.7613 13.485ZM9.69478 9.29499C9.775 9.70129 9.86565 10.1052 9.96652 10.5069C11.6041 10.138 13.3854 9.86259 15.2463 9.69107C16.3313 8.16846 17.4672 6.77129 18.6165 5.54412C18.4183 5.35542 18.2202 5.17325 18.023 4.99912C14.938 2.27564 12.0113 1.18934 10.6876 1.95129C9.44478 2.66629 8.95108 5.51651 9.69478 9.29499ZM7.78152 22.2426C8.10456 22.3519 8.43021 22.4532 8.75826 22.5465C9.25804 20.9265 9.91673 19.2259 10.7106 17.5076C9.92695 15.8148 9.27739 14.1406 8.78217 12.5395C8.32413 12.6682 7.87 12.8102 7.42043 12.9654C3.83804 14.2074 1.69 16.0343 1.69 17.4667C1.69 18.14 2.18565 18.9695 3.16695 19.8052C4.25891 20.735 5.85217 21.5869 7.78152 22.2426ZM13.4887 32.9635C14.8443 32.4874 16.3826 31.5411 17.9178 30.2067C18.1748 29.9828 18.4261 29.7528 18.6715 29.5165C17.5163 28.2837 16.37 26.8761 15.2754 25.3445C13.358 25.19 11.5641 24.9335 9.94347 24.5772C9.835 25.0098 9.73869 25.4452 9.65456 25.8832C8.94695 29.5889 9.46565 32.3517 10.7137 33.0674C11.3002 33.4035 12.2704 33.3913 13.4887 32.9635ZM29.9219 25.4535C29.86 25.143 29.7882 24.8256 29.7076 24.5019C28.0689 24.8785 26.2619 25.1543 24.3491 25.323C23.2617 26.8882 22.1476 28.2978 21.0326 29.5102C21.3656 29.8287 21.6978 30.13 22.0276 30.4119C24.903 32.8724 27.5698 33.8052 28.8165 33.0874C29.4026 32.7502 29.8763 31.9082 30.1119 30.6454C30.3743 29.24 30.3178 27.4419 29.9219 25.4535ZM31.5467 22.2519C35.4628 20.9617 37.8752 18.9874 37.8752 17.4667C37.8752 16.0391 35.6419 14.1863 31.9804 12.9332C31.6019 12.8035 31.2091 12.6806 30.8043 12.5641C30.3176 14.1302 29.668 15.7848 28.8787 17.4752C29.7056 19.2065 30.3815 20.8826 30.8824 22.4587C31.1085 22.3919 31.3306 22.3232 31.5467 22.2519ZM32.5306 11.3441C36.8039 12.8067 39.5652 15.0978 39.5652 17.4667C39.5652 19.9374 36.6141 22.353 32.0785 23.8472C31.8387 23.9261 31.593 24.0019 31.3426 24.0754C31.4319 24.4328 31.5115 24.7835 31.58 25.1269C32.4754 29.6241 31.7859 33.3204 29.6635 34.5419C27.6087 35.7245 24.2878 34.5628 20.9252 31.6858C20.5596 31.3724 20.203 31.0489 19.8556 30.7156C19.5798 30.9806 19.3043 31.2337 19.03 31.4722C15.5585 34.4893 11.9935 35.7411 9.86934 34.5232C7.81261 33.3437 7.1663 29.903 7.99391 25.5698C8.08434 25.0989 8.18804 24.6304 8.30478 24.1654C7.94543 24.0632 7.58848 23.9524 7.23478 23.8328C2.87174 22.3502 0 19.9048 0 17.4667C0 15.1063 2.67522 12.8306 6.86391 11.3787C7.33217 11.2163 7.82152 11.0637 8.32826 10.9206C8.21978 10.4889 8.12217 10.0546 8.03587 9.61781C7.16804 5.20781 7.77869 1.68347 9.84065 0.496729C11.9911 -0.740879 15.5724 0.588251 19.1454 3.7426C19.3676 3.93912 19.5863 4.13977 19.8011 4.34455C20.1217 4.03673 20.4502 3.73695 20.7861 3.44564C24.1954 0.49586 27.5709 -0.738053 29.6348 0.445425C31.7876 1.67934 32.4178 5.42803 31.4539 10.0813C31.3935 10.3704 31.328 10.6582 31.2569 10.945C31.6848 11.0674 32.1096 11.2004 32.5306 11.3441Z" fill="#52C1DE"/>
</svg>
