<svg width="36" height="36" viewBox="0 0 36 36" fill="none" xmlns="http://www.w3.org/2000/svg">
<mask id="mask0_2246_1433" style="mask-type:luminance" maskUnits="userSpaceOnUse" x="-52" y="-52" width="139" height="139">
<path d="M86.7247 -51.4507H-51.3379V86.6119H86.7247V-51.4507Z" fill="white"/>
</mask>
<g mask="url(#mask0_2246_1433)">
<path d="M34.1149 3.72477L26.8324 0.217979C25.9894 -0.187786 24.982 -0.016313 24.3205 0.645421L0.480408 22.3817C-0.120578 22.9297 -0.163514 23.8611 0.384455 24.462C0.415519 24.496 0.447964 24.5286 0.482065 24.5595L2.4293 26.3298C2.95421 26.807 3.74476 26.8422 4.30999 26.4134L33.019 4.63405C33.9821 3.90342 35.3655 4.59042 35.3655 5.7993V5.7148C35.3655 4.86627 34.8794 4.0927 34.1149 3.72449V3.72477Z" fill="#0065A9"/>
<path d="M34.1149 31.4368L26.8324 34.9431C25.9894 35.349 24.9821 35.1778 24.3205 34.5162L0.480408 12.7796C-0.120578 12.2316 -0.163514 11.3003 0.384455 10.6993C0.415519 10.6653 0.447964 10.6327 0.482065 10.6018L2.4293 8.83157C2.95421 8.35429 3.74476 8.31908 4.30999 8.7479L33.019 30.527C33.9821 31.2579 35.3655 30.5709 35.3655 29.362V29.4465C35.3655 30.2951 34.8794 31.0686 34.1149 31.4368Z" fill="#007ACC"/>
<path d="M26.8315 34.9442C26.3094 35.1954 25.7243 35.2252 25.1973 35.0544C24.8732 34.9494 24.5712 34.7685 24.3193 34.5165C25.1345 35.3317 26.5283 34.7543 26.5283 33.6015V1.56017C26.5283 0.407351 25.1345 -0.170027 24.3193 0.645371C24.9809 -0.0163626 25.9882 -0.187837 26.8315 0.217653L34.1127 3.71947C34.8778 4.08741 35.3643 4.86139 35.3643 5.71033V29.4521C35.3643 30.3011 34.8778 31.075 34.1127 31.443L26.8315 34.9445V34.9442Z" fill="#1F9CF0"/>
</g>
</svg>
